<svg xmlns="http://www.w3.org/2000/svg" width="304.619" height="105.506" viewBox="0 0 304.619 105.506">
  <g id="Símbolo_17_5" data-name="Símbolo 17 – 5" transform="translate(-55.68 -24.161)">
    <path id="Caminho_27" data-name="Caminho 27" d="M141.5,43.511l4.88-4.88c-.14-.14-.27-.279-.41-.419a48,48,0,0,0-58.74-7.15,49.545,49.545,0,0,0-17.4,80.83l-4.94,4.94a48.012,48.012,0,0,0,53.19,8.239,49.527,49.527,0,0,0,23.42-81.56Zm-13.53,74.83c1.14-.949,2.25-1.829,3.32-2.9a47.46,47.46,0,0,0,2.86-64.12h-.01c-.06,0-.31-.44-.72-.81a26.7,26.7,0,0,0-7.63-4.916A17.217,17.217,0,0,0,108.64,49.1a14.85,14.85,0,0,0-4.21,6.474,16.2,16.2,0,0,0,2.6,15.512c.59.63,1.22,1.286,1.88,1.966q1.785,1.8,3.25,3.567c6.8,8.25,8.48,16.37,4.68,26.26-2.8,7.27-8,12.969-15.1,15.289-5.31,1.74-11.68,1.6-18.91-1.18-5.52-2.12-7.47-3.61-9.55-5.41-.54-.46-1.08-.95-1.69-1.46a1.5,1.5,0,0,1-.13-.111l.12-.119a46.7,46.7,0,0,1,3.55-67.921,47.638,47.638,0,0,0,1.98,62.62l.13.121a14.814,14.814,0,0,0,6.09,4.41,17.244,17.244,0,0,0,17.16-3.54,15.149,15.149,0,0,0,4.21-6.491,16.225,16.225,0,0,0-2.61-15.52c-.59-.63-1.21-1.29-1.87-1.98q-1.785-1.785-3.25-3.569c-6.8-8.25-8.49-16.361-4.68-26.25,2.8-7.281,7.99-12.971,15.09-15.3,5.31-1.739,11.69-1.59,18.92,1.19,6.88,2.651,9.32,4.511,12.87,7.99.02.021-.15.05-.13.07.06.051-.04.111-.04.16v.011A45.357,45.357,0,0,1,151.61,77.6,46.485,46.485,0,0,1,127.97,118.341Z" fill="#f5f5f5"/>
    <g id="Grupo_48" data-name="Grupo 48">
      <g id="Grupo_47" data-name="Grupo 47">
        <path id="Caminho_28" data-name="Caminho 28" d="M185.016,77.2a7.391,7.391,0,0,1,2.7.552,13.27,13.27,0,0,1,2.7,1.452h-.05a5.811,5.811,0,0,1,2,2.453,8.567,8.567,0,0,1,.7,3.555v6.861a7.048,7.048,0,0,1-2.7,6.059,11.489,11.489,0,0,1-2.68,1.478,7.474,7.474,0,0,1-2.677.526H174.1a7.486,7.486,0,0,1-2.68-.526,11.549,11.549,0,0,1-2.68-1.478,7.052,7.052,0,0,1-2.7-6.059V88.767q0-2.354,2.955-2.352,3,0,3.006,2.352v2.906a3.954,3.954,0,0,0,.75,2.353,2.983,2.983,0,0,0,2.6,1.051h8.414a2.982,2.982,0,0,0,2.6-1.051,3.948,3.948,0,0,0,.751-2.353v-6.06a3.988,3.988,0,0,0-.751-2.328,2.947,2.947,0,0,0-2.6-1.077H174.1a9.456,9.456,0,0,1-5.36-1.9,7.222,7.222,0,0,1-2.7-6.059v-5.96a8.368,8.368,0,0,1,.7-3.53,6.265,6.265,0,0,1,2-2.48h-.048a14.966,14.966,0,0,1,2.7-1.4,7.382,7.382,0,0,1,2.7-.551h10.918a7.389,7.389,0,0,1,2.7.551,15.033,15.033,0,0,1,2.7,1.4h-.05a6.235,6.235,0,0,1,2,2.48,8.383,8.383,0,0,1,.7,3.53v2.956q0,2.354-3,2.352-2.956,0-2.956-2.352v-2.5a3.875,3.875,0,0,0-.751-2.3,2.979,2.979,0,0,0-2.6-1.052H175.35a2.981,2.981,0,0,0-2.6,1.052,3.88,3.88,0,0,0-.75,2.3v5.108a3.838,3.838,0,0,0,.75,2.327,3.018,3.018,0,0,0,2.6,1.027Z" fill="#f5f5f5"/>
        <path id="Caminho_29" data-name="Caminho 29" d="M207.048,74.646V92.875a3.177,3.177,0,0,0,.551,2,2.946,2.946,0,0,0,2.353.7h1.3q1.953,0,1.854,2.3,0,2.36-1.854,2.356H209.6a10.246,10.246,0,0,1-3-.427,11.389,11.389,0,0,1-2.7-1.226v.049q-2.457-1.6-2.455-5.707V74.646h-1.953q-1.8,0-1.9-2.354,0-2.354,1.9-2.354h1.953V64.582q0-2.406,2.854-2.406,2.754,0,2.754,2.406v5.356H211.2q1.953,0,1.854,2.354,0,2.355-1.854,2.354Z" fill="#f5f5f5"/>
        <path id="Caminho_30" data-name="Caminho 30" d="M222.872,97.983q0,2.4-2.754,2.4-2.853,0-2.854-2.4V77.25q0-4.107,2.454-5.708a10.108,10.108,0,0,1,5.658-1.6h5.709q1.853,0,1.852,2.354.1,2.355-1.852,2.354h-5.31a2.948,2.948,0,0,0-2.352.7,3.081,3.081,0,0,0-.551,1.952Z" fill="#f5f5f5"/>
        <path id="Caminho_31" data-name="Caminho 31" d="M242.7,92.073a3.716,3.716,0,0,0,.776,2.254,3.052,3.052,0,0,0,2.627,1.052h6.26a3.271,3.271,0,0,0,2.63-.926,3.225,3.225,0,0,0,.776-2.128v-.552q0-2.354,2.754-2.354t2.754,2.354v.6a7.707,7.707,0,0,1-.676,3.456,6.619,6.619,0,0,1-2.026,2.354,9.074,9.074,0,0,1-5.31,1.9h-8.413a8.434,8.434,0,0,1-5.158-1.9,6.609,6.609,0,0,1-1.852-2.53,8.917,8.917,0,0,1-.652-3.53V77.852q0-4.056,2.5-6.01a11.961,11.961,0,0,1,2.58-1.426,6.945,6.945,0,0,1,2.578-.528h8.413a8.542,8.542,0,0,1,2.654.478,11.882,11.882,0,0,1,2.706,1.276,6.042,6.042,0,0,1,1.926,2.352,8.119,8.119,0,0,1,.726,3.557v6.76a3.327,3.327,0,0,1-.676,2.054,2.925,2.925,0,0,1-2.478.9H247.31q-1.806,0-1.9-2.352,0-2.355,1.9-2.356h8.512l-.05-4.656A3.684,3.684,0,0,0,255,75.624a3.092,3.092,0,0,0-2.63-1.028h-6.26a3.084,3.084,0,0,0-2.627,1.028A3.671,3.671,0,0,0,242.7,77.9Z" fill="#f5f5f5"/>
        <path id="Caminho_32" data-name="Caminho 32" d="M275.2,100.087a10.068,10.068,0,0,1-2.954-.428,11.413,11.413,0,0,1-2.7-1.226v.05q-2.453-1.551-2.454-5.708V90.321a8.26,8.26,0,0,1,.726-3.582,6.046,6.046,0,0,1,2.028-2.428h-.05a9.671,9.671,0,0,1,2.654-1.276,9.325,9.325,0,0,1,2.7-.427h11.067V77.952a3.7,3.7,0,0,0-.776-2.28,3.092,3.092,0,0,0-2.629-1.026h-5.86a3.179,3.179,0,0,0-2.628.926,3.427,3.427,0,0,0-.726,2.18v.4q0,2.6-2.8,2.6t-2.806-2.6V77.7a7.469,7.469,0,0,1,.726-3.456,6.953,6.953,0,0,1,1.978-2.354h-.048a14.629,14.629,0,0,1,2.728-1.4,7.541,7.541,0,0,1,2.728-.552h7.614a7.426,7.426,0,0,1,2.678.552,13.285,13.285,0,0,1,2.679,1.4h-.049a6.242,6.242,0,0,1,2,2.478,8.4,8.4,0,0,1,.7,3.531V97.983q0,2.4-2.754,2.4c-.367,0-.709-.018-1.026-.049a2.1,2.1,0,0,1-.852-.276,1.616,1.616,0,0,1-.6-.653,2.38,2.38,0,0,1-.226-1.126l-.051-10.967H276.1a4.606,4.606,0,0,0-1.7.25,2.063,2.063,0,0,0-.952.8q-.4.854-.574,1.326a3.068,3.068,0,0,0-.174,1.078v1.954a2.487,2.487,0,0,0,.774,1.978,4.109,4.109,0,0,0,2.68.676h5.608q1.853,0,1.854,2.352a2.949,2.949,0,0,1-.452,1.677,1.564,1.564,0,0,1-1.4.679Z" fill="#f5f5f5"/>
        <path id="Caminho_33" data-name="Caminho 33" d="M303.7,97.983q0,2.4-2.755,2.4t-2.754-2.4V77.852a8.914,8.914,0,0,1,.65-3.556,5.624,5.624,0,0,1,2.054-2.454,9.069,9.069,0,0,1,5.309-1.9h8.062a9.4,9.4,0,0,1,5.308,1.9q2.7,1.9,2.7,6.01V97.983q0,2.4-2.755,2.4t-2.756-2.4V78.3a4.449,4.449,0,0,0-.8-2.5l.052.05a2.745,2.745,0,0,0-2.656-1.2H307.1a2.8,2.8,0,0,0-2.705,1.2,4.331,4.331,0,0,0-.7,2.453Z" fill="#f5f5f5"/>
        <path id="Caminho_34" data-name="Caminho 34" d="M334.24,91.723v6.36q0,2.352-2.754,2.354t-2.754-2.354V62.426q0-2.4,2.754-2.4t2.754,2.4V83.661q1.253-1.506,2.78-3.232t3.056-3.5q1.524-1.776,3.028-3.5t2.8-3.23v.05a2.474,2.474,0,0,1,1.8-1.052,2.26,2.26,0,0,1,.977.224,6.588,6.588,0,0,1,1.025.628h-.049a2.739,2.739,0,0,1,1.2,2,2.361,2.361,0,0,1-.152.776,1.663,1.663,0,0,1-.5.726Zm16.727,5.008a2.81,2.81,0,0,1,.35,1.352,2.1,2.1,0,0,1-1.5,1.951,3.579,3.579,0,0,1-1.8.6,1.729,1.729,0,0,1-1.051-.376,2.826,2.826,0,0,1-.8-.925l-5.008-9.666a2.9,2.9,0,0,1-.452-1.5,2.481,2.481,0,0,1,1.3-2.1,6.66,6.66,0,0,1,.728-.45,3.24,3.24,0,0,1,.826-.3,1.477,1.477,0,0,1,1.051.2,2.825,2.825,0,0,1,.852.8Z" fill="#f5f5f5"/>
      </g>
      <path id="Caminho_35" data-name="Caminho 35" d="M360.3,97.164a3.417,3.417,0,1,1-3.417-3.415A3.417,3.417,0,0,1,360.3,97.164Z" fill="#f5f5f5"/>
    </g>
  </g>
</svg>
