<?xml version="1.0" encoding="utf-8"?>
<!-- Generator: Adobe Illustrator 15.0.2, SVG Export Plug-In  -->
<!DOCTYPE svg PUBLIC "-//W3C//DTD SVG 1.1//EN" "http://www.w3.org/Graphics/SVG/1.1/DTD/svg11.dtd" [
	<!ENTITY ns_flows "http://ns.adobe.com/Flows/1.0/">
]>
<svg version="1.1"
	 xmlns="http://www.w3.org/2000/svg" xmlns:xlink="http://www.w3.org/1999/xlink" xmlns:a="http://ns.adobe.com/AdobeSVGViewerExtensions/3.0/"
	 x="0px" y="0px" width="34px" height="42px" viewBox="-8.447 -10.949 34 42" enable-background="new -8.447 -10.949 34 42"
	 xml:space="preserve">
<defs>
</defs>
<path fill="#FFFFFF" d="M4.031,10.454c-1.773-1.774-1.773-4.647,0-6.422c1.773-1.773,4.648-1.773,6.422,0
	c1.773,1.775,1.773,4.647,0,6.422C8.68,12.227,5.805,12.227,4.031,10.454 M16.814,14.6l-3.471-3.47
	c1.786-2.803,1.467-6.561-0.98-9.009c-2.829-2.827-7.414-2.827-10.242,0c-2.828,2.829-2.828,7.416,0,10.245
	c2.447,2.447,6.207,2.767,9.008,0.978l3.471,3.472c0.609,0.61,1.602,0.61,2.215,0C17.424,16.202,17.424,15.211,16.814,14.6"/>
</svg>
