<?xml version="1.0" encoding="utf-8"?>
<!-- Generator: Adobe Illustrator 15.0.2, SVG Export Plug-In  -->
<!DOCTYPE svg PUBLIC "-//W3C//DTD SVG 1.1//EN" "http://www.w3.org/Graphics/SVG/1.1/DTD/svg11.dtd" [
	<!ENTITY ns_flows "http://ns.adobe.com/Flows/1.0/">
]>
<svg version="1.1"
	 xmlns="http://www.w3.org/2000/svg" xmlns:xlink="http://www.w3.org/1999/xlink" xmlns:a="http://ns.adobe.com/AdobeSVGViewerExtensions/3.0/"
	 x="0px" y="0px" width="50px" height="62px" viewBox="-16.17 -16.08 50 62" enable-background="new -16.17 -16.08 50 62"
	 xml:space="preserve">
<defs>
</defs>
<path fill-rule="evenodd" clip-rule="evenodd" fill="#F5F5F5" d="M4.973,29.969c-1.178,0-3.078-0.354-2.866,0.558
	c0.118,0.505,1.46,0.319,2.388,0.319c0.986,0,2.214,0.228,2.309-0.558C6.625,29.821,5.742,29.969,4.973,29.969z M4.894,28.138
	c-0.912,0-2.138-0.058-2.627,0.08c-0.128,0.112-0.204,0.274-0.239,0.478c0.341,0.517,1.523,0.319,2.467,0.319
	c0.885,0,2.19,0.269,2.309-0.479C6.629,27.953,5.667,28.138,4.894,28.138z M4.894,26.387c-0.979,0-2.21-0.059-2.708,0.079
	c-0.095,0.22-0.173,0.333-0.079,0.558c0.44,0.403,1.477,0.239,2.388,0.239c0.883,0,2.035,0.216,2.309-0.398
	C6.739,26.176,5.676,26.387,4.894,26.387z M4.973,24.556c-1.335,0-3.053-0.276-2.866,0.637c0.463,0.416,1.545,0.238,2.468,0.238
	c0.87,0,1.971,0.221,2.229-0.318C6.879,24.473,5.875,24.556,4.973,24.556z M1.47,24.237c-0.071-0.274-0.194-0.496-0.319-0.717
	C1.223,23.794,1.197,24.164,1.47,24.237z M4.894,22.804c-0.912,0-2.138-0.058-2.627,0.08c-0.081,0-0.097,0.064-0.16,0.08
	c-0.007,0.297-0.089,0.227,0,0.477c0.433,0.413,1.552,0.238,2.468,0.238c0.86,0,2.098,0.255,2.229-0.477
	C6.629,22.619,5.667,22.804,4.894,22.804z M4.813,21.053c-0.922,0-2.142-0.058-2.628,0.079c-0.004,0.102-0.102,0.11-0.079,0.239
	c-0.205,0.019,0.109,0.137,0,0.318c0.444,0.396,1.55,0.239,2.468,0.239c0.869,0,2.08,0.252,2.229-0.477
	C6.617,20.843,5.623,21.053,4.813,21.053z M11.74,0.91c-1.435-0.378-1.617,0.805-2.309,1.115C8.846,1.628,7.924,0.803,6.963,1.309
	C6.901,1.682,7.252,1.955,7.361,2.343C7.594,3.164,7.617,4.05,7.918,4.891c0.298,0.827,0.704,1.432,1.115,2.07h4.538
	c1.292-1.203,1.255-3.735,1.831-5.652c-1.027-0.505-1.82,0.341-2.467,0.716C12.363,1.743,12.326,1.065,11.74,0.91z M13.014,0.831
	c1.016-0.776,3.197-0.92,3.344,0.478c0.039,0.37-0.278,0.634-0.398,1.114c-0.218,0.875-0.197,2.343-0.477,3.105
	c-0.255,0.694-0.788,1.197-0.956,1.593c3.084,1.98,5.244,4.996,6.767,8.836c0.051,0.125,0.813,1.335,0,1.433
	c-0.52,0.064-0.646-0.79-0.875-1.354c-1.062-2.62-2.539-4.686-4.379-6.528c-0.687-0.686-1.461-1.638-2.707-1.671
	c0.143,0.414,0.71,0.702,0.956,1.115c0.49,0.825,0.406,1.797,0.558,3.264c0.144,1.405,0.858,2.445,1.67,3.343
	c0.209,0.231,0.799,0.545,0.559,0.956c-0.521,0.89-1.965-1.303-2.149-1.592c-0.534-0.84-0.969-2.192-1.035-3.106
	c-0.089-1.225,0.036-2.096-0.718-2.706c0.127,0.646,0.193,1.139,0.16,1.672c-0.126,2.03-1.586,2.812-1.353,5.174
	c0.062,0.627,0.622,1.389,0,1.831c-0.849-0.145-0.961-1.651-0.956-2.467c0.01-1.784,1.439-3.287,1.434-4.937
	c-0.005-0.955-0.408-1.746-0.876-2.547c-0.816,0.143-1.941-0.188-2.866,0c-0.923,0.187-2.047,1.409-2.866,2.229
	c-3.046,3.046-5.593,7.214-4.777,13.296c0.157-0.295,0.14-0.764,0.398-0.956c-0.624-0.842-0.278-2.185,0.955-2.308
	c0.29-0.03,0.709,0.076,1.114,0.079c1.271,0.008,2.758-0.176,3.264,0c0.813,0.282,1.182,1.339,0.559,2.15
	c0.358,0.39,0.465,1.39,0,1.751c0.35,0.436,0.457,1.426,0,1.832c0.352,0.419,0.443,1.359,0,1.751c0.341,0.407,0.469,1.385,0,1.751
	c0.148,0.357,0.367,0.642,0.318,1.194c7.117,1.15,13.133-0.74,13.933-7.086c0.063-0.501-0.147-1.648,0.556-1.592
	c0.569,0.045,0.426,1.374,0.32,2.07c-0.993,6.511-7.549,8.847-15.207,7.404c-0.575,0.428-1.709,0.319-3.105,0.319
	c-1.665,0-2.915,0.067-3.025-1.194c-0.041-0.48,0.123-0.655,0.319-1.035c-0.353-0.42-0.443-1.36,0-1.751
	c-0.382-0.467-0.4-1.368,0-1.831c-1.356-1.093-1.573-3.375-1.433-5.892c0.328-5.92,4.221-10.373,8.04-12.897
	C7.697,6.643,7.345,5.954,7.042,5.05C6.761,4.202,6.703,3.315,6.484,2.582C6.333,2.071,5.957,1.857,6.008,1.309
	c0.133-1.425,2.3-1.229,3.344-0.478C10.02-0.227,12.377-0.327,13.014,0.831z"/>
</svg>
